name D:\PhD\Datasets\SharingData_IBEC_VALDUCE\MO1_Comp_0001.mot
datacolumns 46
datarows 10
range 5.01000000 5.10000000
endheader
                time	         pelvis_tilt	     pelvis_rotation	           pelvis_tx	           pelvis_ty	           pelvis_tz	       hip_flexion_r	     hip_adduction_r	      hip_rotation_r	        knee_angle_r	       ankle_angle_r	    subtalar_angle_r	         mtp_angle_r	       hip_flexion_l	     hip_adduction_l	      hip_rotation_l	        knee_angle_l	       ankle_angle_l	    subtalar_angle_l	         mtp_angle_l	    lumbar_extension	      lumbar_bending	     lumbar_rotation	          arm_flex_r	           arm_add_r	           arm_rot_r	        elbow_flex_r	           pro_sup_r	        wrist_flex_r	         wrist_dev_r	          arm_flex_l	           arm_add_l	           arm_rot_l	        elbow_flex_l	           pro_sup_l	        wrist_flex_l	         wrist_dev_l	          end_eff_tx	          end_eff_ty	          end_eff_tz	             goal_tx	             goal_ty	             goal_tz	            elbow_tx	            elbow_ty	            elbow_tz	
          5.01000000	          0.00000000	          0.00000000	        326.87053248	        498.06277259	        328.60444149	          0.00000000	          0.00000000	          0.00000000	          0.00000000	          0.00000000	          0.00000000	          0.00000000	          0.00000000	          0.00000000	          0.00000000	          0.00000000	          0.00000000	          0.00000000	          0.00000000	         -7.44227839	         -2.39384460	          2.41557264	         61.59177780	        -37.51957321	         30.99717140	         87.55735016	         77.84965515	          0.00000000	          0.00000000	          0.00000000	          0.00000000	          0.00000000	          0.00000000	          0.00000000	          0.00000000	          0.00000000	        718.41703981	        673.52010624	        383.76737117	        724.45654051	        674.21292624	        387.35282852	        469.30344689	        493.34436533	        669.61818917	
          5.02000000	          0.00000000	          0.00000000	        325.86826301	        498.25757636	        330.38886044	          0.00000000	          0.00000000	          0.00000000	          0.00000000	          0.00000000	          0.00000000	          0.00000000	          0.00000000	          0.00000000	          0.00000000	          0.00000000	          0.00000000	          0.00000000	          0.00000000	         -7.39331722	         -2.09293294	          2.06907058	         61.50641251	        -37.81969070	         31.00440025	         87.49694061	         77.95886230	          0.00000000	          0.00000000	          0.00000000	          0.00000000	          0.00000000	          0.00000000	          0.00000000	          0.00000000	          0.00000000	        716.72663823	        672.90623906	        390.84771820	        722.78428638	        673.64051883	        394.42211231	        464.42380878	        492.77737075	        673.86977501	
          5.03000000	          0.00000000	          0.00000000	        324.86527705	        498.60835291	        332.32014606	          0.00000000	          0.00000000	          0.00000000	          0.00000000	          0.00000000	          0.00000000	          0.00000000	          0.00000000	          0.00000000	          0.00000000	          0.00000000	          0.00000000	          0.00000000	          0.00000000	         -7.38667536	         -1.96432722	          1.73716950	         61.38522720	        -38.16180420	         30.89583588	         87.57500458	         77.92131805	          0.00000000	          0.00000000	          0.00000000	          0.00000000	          0.00000000	          0.00000000	          0.00000000	          0.00000000	          0.00000000	        715.06746591	        672.20772079	        397.82498304	        721.11560827	        672.95950079	        401.56674559	        459.51523857	        492.34696315	        678.11405413	
          5.04000000	          0.00000000	          0.00000000	        324.03354267	        498.96674790	        334.04546892	          0.00000000	          0.00000000	          0.00000000	          0.00000000	          0.00000000	          0.00000000	          0.00000000	          0.00000000	          0.00000000	          0.00000000	          0.00000000	          0.00000000	          0.00000000	          0.00000000	         -7.24893808	         -1.74624455	          1.45552015	         61.16677094	        -38.51761627	         30.88187027	         87.57390594	         77.88543701	          0.00000000	          0.00000000	          0.00000000	          0.00000000	          0.00000000	          0.00000000	          0.00000000	          0.00000000	          0.00000000	        713.39879853	        671.53689880	        404.83120910	        719.43458848	        672.38351916	        408.69330370	        454.67943242	        491.91327171	        682.37147859	
          5.05000000	          0.00000000	          0.00000000	        323.04749993	        499.20471962	        335.89245225	          0.00000000	          0.00000000	          0.00000000	          0.00000000	          0.00000000	          0.00000000	          0.00000000	          0.00000000	          0.00000000	          0.00000000	          0.00000000	          0.00000000	          0.00000000	          0.00000000	         -7.10232973	         -1.61632133	          1.12049818	         60.93532944	        -38.80853271	         30.74036217	         87.54077911	         77.92259979	          0.00000000	          0.00000000	          0.00000000	          0.00000000	          0.00000000	          0.00000000	          0.00000000	          0.00000000	          0.00000000	        711.59406958	        670.95829523	        411.79383928	        717.66870482	        671.64462606	        415.75468059	        449.82415453	        491.44539709	        686.65529777	
          5.06000000	          0.00000000	          0.00000000	        322.22066944	        499.60121948	        337.73567738	          0.00000000	          0.00000000	          0.00000000	          0.00000000	          0.00000000	          0.00000000	          0.00000000	          0.00000000	          0.00000000	          0.00000000	          0.00000000	          0.00000000	          0.00000000	          0.00000000	         -7.12899923	         -1.48302090	          0.77789909	         60.83244705	        -39.05782700	         30.65293694	         87.51610565	         77.82029724	          0.00000000	          0.00000000	          0.00000000	          0.00000000	          0.00000000	          0.00000000	          0.00000000	          0.00000000	          0.00000000	        709.91222535	        670.51914480	        418.92413839	        715.96578338	        671.15039248	        422.76541732	        444.99786445	        491.15043369	        690.78414329	
          5.07000000	          0.00000000	          0.00000000	        321.26544176	        499.77925374	        339.43870453	          0.00000000	          0.00000000	          0.00000000	          0.00000000	          0.00000000	          0.00000000	          0.00000000	          0.00000000	          0.00000000	          0.00000000	          0.00000000	          0.00000000	          0.00000000	          0.00000000	         -6.97771978	         -1.21042871	          0.42308679	         60.74456787	        -39.43036652	         30.74607658	         87.52417755	         77.81987000	          0.00000000	          0.00000000	          0.00000000	          0.00000000	          0.00000000	          0.00000000	          0.00000000	          0.00000000	          0.00000000	        708.22426566	        670.09365466	        426.00894312	        714.19623667	        670.60554528	        429.79932062	        439.91251384	        490.65624162	        695.01578515	
          5.08000000	          0.00000000	          0.00000000	        320.42491584	        500.17451690	        341.21540149	          0.00000000	          0.00000000	          0.00000000	          0.00000000	          0.00000000	          0.00000000	          0.00000000	          0.00000000	          0.00000000	          0.00000000	          0.00000000	          0.00000000	          0.00000000	          0.00000000	         -7.14366531	         -0.97696924	         -0.02977979	         60.92910004	        -39.66223526	         30.85092926	         87.51152039	         77.78413391	          0.00000000	          0.00000000	          0.00000000	          0.00000000	          0.00000000	          0.00000000	          0.00000000	          0.00000000	          0.00000000	        706.45104351	        669.60301435	        433.04269505	        712.44989772	        670.06019573	        436.86711701	        435.12849937	        490.33182076	        699.13760655	
          5.09000000	          0.00000000	          0.00000000	        319.60091151	        500.49316490	        342.88034496	          0.00000000	          0.00000000	          0.00000000	          0.00000000	          0.00000000	          0.00000000	          0.00000000	          0.00000000	          0.00000000	          0.00000000	          0.00000000	          0.00000000	          0.00000000	          0.00000000	         -6.80697966	         -0.89051962	         -0.19386655	         60.42781067	        -40.09539795	         30.60174179	         87.50069427	         77.67475128	          0.00000000	          0.00000000	          0.00000000	          0.00000000	          0.00000000	          0.00000000	          0.00000000	          0.00000000	          0.00000000	        704.65837658	        669.22968623	        440.09225539	        710.65999769	        669.77114772	        443.97835255	        430.30028752	        490.07880050	        703.23198543	
          5.10000000	          0.00000000	          0.00000000	        319.39276312	        501.19698622	        344.41178284	          0.00000000	          0.00000000	          0.00000000	          0.00000000	          0.00000000	          0.00000000	          0.00000000	          0.00000000	          0.00000000	          0.00000000	          0.00000000	          0.00000000	          0.00000000	          0.00000000	         -6.25933599	         -1.10508764	          0.14953586	         59.25775909	        -40.84463501	         29.70110512	         87.49125671	         77.80162811	          0.00000000	          0.00000000	          0.00000000	          0.00000000	          0.00000000	          0.00000000	          0.00000000	          0.00000000	          0.00000000	        702.91046153	        668.95104977	        447.21790860	        708.87631641	        669.22829903	        451.01753421	        425.58386914	        489.74983151	        707.29452497	
